<?xml version="1.0" encoding="UTF-8"?><svg id="Layer_1" xmlns="http://www.w3.org/2000/svg" xmlns:xlink="http://www.w3.org/1999/xlink" viewBox="0 0 1100 1100"><defs><style>.cls-1,.cls-2,.cls-3{fill:#fff;}.cls-2{font-size:108.48px;}.cls-2,.cls-3{font-family:SuperclarendonBl-Regular, Superclarendon;}.cls-3{font-size:108.48px;}.cls-4,.cls-5{fill:#0c4dcc;}.cls-6{fill:#026;}.cls-5{font-family:Oswald-Medium, Oswald;font-size:51px;letter-spacing:-.02em;}.cls-7{fill:#039;}.cls-8{clip-path:url(#clippath);}.cls-9{fill:none;}.cls-10{fill:#ed1c24;}.cls-11{fill:#1a1a1a;}</style><clipPath id="clippath"><path class="cls-9" d="M805,550c0,140.83-114.17,255-255,255s-255-114.17-255-255c0-52.13,15.65-100.61,42.5-141,45.68-68.71,123.8-114,212.5-114,140.83,0,255,114.17,255,255Z"/></clipPath></defs><circle class="cls-7" cx="550" cy="550" r="550"/><circle class="cls-6" cx="550" cy="550" r="440"/><g><path class="cls-10" d="M550,813.5c-70.38,0-136.55-27.41-186.32-77.18-49.77-49.77-77.18-115.94-77.18-186.32s27.41-136.55,77.18-186.32,115.94-77.18,186.32-77.18,136.55,27.41,186.32,77.18c49.77,49.77,77.18,115.94,77.18,186.32s-27.41,136.55-77.18,186.32c-49.77,49.77-115.94,77.18-186.32,77.18Z"/><path class="cls-1" d="M550,295.5c34.37,0,67.69,6.73,99.06,19.99,30.3,12.82,57.52,31.17,80.9,54.55,23.38,23.38,41.73,50.6,54.55,80.9,13.27,31.36,19.99,64.69,19.99,99.06s-6.73,67.69-19.99,99.06c-12.82,30.3-31.17,57.52-54.55,80.9-23.38,23.38-50.6,41.73-80.9,54.55-31.36,13.27-64.69,19.99-99.06,19.99s-67.69-6.73-99.06-19.99c-30.3-12.82-57.52-31.17-80.9-54.55-23.38-23.38-41.73-50.6-54.55-80.9-13.27-31.36-19.99-64.69-19.99-99.06s6.73-67.69,19.99-99.06c12.82-30.3,31.17-57.52,54.55-80.9,23.38-23.38,50.6-41.73,80.9-54.55,31.36-13.27,64.69-19.99,99.06-19.99m0-18c-150.5,0-272.5,122-272.5,272.5s122,272.5,272.5,272.5,272.5-122,272.5-272.5-122-272.5-272.5-272.5h0Z"/></g><g class="cls-8"><rect class="cls-1" x="251.67" y="409" width="596.67" height="282"/></g><g><path class="cls-11" d="M373.85,465.66h103.97c38.33,0,59.21,5.28,59.21,42.23,0,23.41-13.77,32.59-32.59,35.8,27.31,2.52,43.61,15.38,43.61,40.39,0,38.79-16.29,50.26-64.72,50.26h-109.48v-23.87c13.31,0,20.2-3.44,20.2-10.33v-98c0-6.89-6.89-10.33-20.2-10.33v-26.16Zm77.57,68.85h9.87c15.38,0,17.44-7.8,17.44-22.95,0-8.95-4.82-14-17.44-14h-9.87v36.95Zm0,70.23h15.84c17.67,0,21.57-10.33,21.57-22.95,0-14.46-3.9-24.1-21.57-24.1h-15.84v47.05Z"/><path class="cls-11" d="M715.82,520.05l-25.7,2.07c-4.36-23.41-23.41-30.75-50.03-30.75-13.77,0-25.25,2.52-25.25,13.54,0,16.98,42,14.92,75.05,26.39,23.87,8.26,36.26,24.1,36.26,50.72,0,35.34-27.77,56-64.03,56s-45.9-11.93-55.77-11.93c-4.36,0-7.57,2.3-9.87,8.26h-25.47v-57.84l25.47-1.38c1.84,23.64,22.49,33.05,54.39,33.05,18.13,0,29.61-3.9,29.61-17.67,0-17.21-35.34-14.92-66.1-23.64-33.97-9.41-43.61-26.85-43.61-55.77,0-26.85,18.13-49.11,56.92-49.11,34.89,0,44.52,11.25,52.79,11.25,5.97,0,8.95-2.07,12.62-7.57h22.72v54.39Z"/></g><text class="cls-5" transform="translate(134.11 584.56)"><tspan x="0" y="0">SINCE</tspan></text><g><path class="cls-4" d="M860.05,578.28l10-15.45c2.2-3.45,4.3-6.1,4.3-10.1,0-3-1-4.7-3.3-4.7-3.25,0-4.05,3-4.05,6.45v1.7h-6.8v-1.8c0-7.2,3-12.15,10.65-12.15,6.9,0,10.4,3.95,10.4,10.55,0,5.05-2.4,8.3-5,12.3l-8.35,12.55h12.3v5.55h-20.15v-4.9Z"/><path class="cls-4" d="M885,572.03v-17.95c0-7.1,3.2-11.85,10.55-11.85s10.55,4.8,10.55,11.85v17.95c0,6.9-3.5,11.75-10.55,11.75s-10.55-4.85-10.55-11.75Zm14.1-.1v-17.75c0-2.75-.4-6-3.55-6s-3.55,3.25-3.55,6v17.75c0,2.6,.55,5.9,3.55,5.9s3.55-3.3,3.55-5.9Z"/><path class="cls-4" d="M915.85,550.32c-.8,.5-5.4,1.55-6.25,1.95v-5.15c1.85-.65,6.15-2.45,7.85-4.45h5.35v40.5h-6.95v-32.85Z"/><path class="cls-4" d="M929.5,571.43c.05-4.7,1.75-7.85,4.85-9.6-2.4-1.6-4.2-4.4-4.25-8.9-.1-6.65,3.25-10.7,9.95-10.7s10,4.1,9.9,10.7c-.05,4.5-1.8,7.3-4.2,8.9,3.05,1.75,4.8,4.9,4.85,9.6,.1,7.4-2.75,12.3-10.55,12.3s-10.6-4.95-10.55-12.3Zm14.35,.4c.05-3.45-.6-6.8-3.8-6.85-3.15,.05-3.85,3.35-3.85,6.85,0,3.25,.55,6.65,3.85,6.65s3.8-3.45,3.8-6.65Zm-.5-19.15c0-3-.95-5.2-3.3-5.2s-3.4,2.2-3.4,5.15c0,3.75,.85,6.45,3.4,6.5,2.5-.05,3.3-2.75,3.3-6.45Z"/></g><ellipse class="cls-4" cx="906.1" cy="522.21" rx="65.77" ry="2.38"/><ellipse class="cls-4" cx="906.1" cy="608.96" rx="65.77" ry="2.38"/><ellipse class="cls-4" cx="189.42" cy="522.21" rx="65.77" ry="2.38"/><ellipse class="cls-4" cx="189.42" cy="608.96" rx="65.77" ry="2.38"/><text class="cls-2" transform="translate(298.95 360.19) rotate(-44.75)"><tspan x="0" y="0">O</tspan></text><text class="cls-2" transform="translate(358.08 301) rotate(-29.94)"><tspan x="0" y="0">C</tspan></text><text class="cls-2" transform="translate(425.48 260.96) rotate(-15.04)"><tspan x="0" y="0">E</tspan></text><text class="cls-2" transform="translate(505.22 238.12) rotate(.93)"><tspan x="0" y="0">A</tspan></text><text class="cls-2" transform="translate(593.96 238.12) rotate(17.25)"><tspan x="0" y="0">N</tspan></text><text class="cls-2" transform="translate(682.28 267.45) rotate(30.6)"><tspan x="0" y="0">I</tspan></text><text class="cls-2" transform="translate(727.96 291.33) rotate(43.45)"><tspan x="0" y="0">A</tspan></text><text class="cls-3" transform="translate(187.73 701.66) rotate(60.43)"><tspan x="0" y="0">B</tspan></text><text class="cls-3" transform="translate(239.52 789.92) rotate(45.82)"><tspan x="0" y="0">E</tspan></text><text class="cls-3" transform="translate(308.4 859.62) rotate(31.11)"><tspan x="0" y="0">A</tspan></text><text class="cls-3" transform="translate(383.14 905.4) rotate(18.48)"><tspan x="0" y="0">T</tspan></text><text class="cls-3" transform="translate(476 933.29) rotate(8.15)"><tspan x="0" y="0"> </tspan></text><text class="cls-3" transform="translate(517.87 940.66) rotate(-1.24)"><tspan x="0" y="0">S</tspan></text><text class="cls-3" transform="translate(608.34 938.43) rotate(-15.42)"><tspan x="0" y="0">A</tspan></text><text class="cls-3" transform="translate(708.4 909.37) rotate(-30.64)"><tspan x="0" y="0">B</tspan></text><text class="cls-3" transform="translate(795.63 855.98) rotate(-45.24)"><tspan x="0" y="0">E</tspan></text><text class="cls-3" transform="translate(864.79 785.66) rotate(-60.61)"><tspan x="0" y="0">R</tspan></text><g><polygon class="cls-1" points="454.33 720 645.67 720 550 766 454.33 720"/><polygon class="cls-1" points="454.33 380 645.67 380 550 334 454.33 380"/></g></svg>