<?xml version="1.0" encoding="UTF-8"?><svg
  id="Layer_2"
  xmlns="http://www.w3.org/2000/svg"
  viewBox="0 0 622.6 57.82"
>
  <defs>
    <style>
      .cls-1 {
        fill: #fff;
      }
    </style>
  </defs>
  <g id="Layer_1-2" >
    <g>
      <path
        class="cls-1"
        d="M16.42,57.68c-.07,0-.22,0-.36-.07-4.46-.79-8.5-3.17-11.45-6.7-2.95-3.53-4.61-7.99-4.61-12.67V19.73C0,14.47,2.02,9.5,5.76,5.83,9.5,2.09,14.4,.07,19.66,.07s10.3,2.02,13.97,5.76c3.74,3.67,5.83,8.64,5.83,13.9v18.51c0,4.68-1.66,9.15-4.68,12.67-2.88,3.53-6.98,5.9-11.45,6.7-1.01,.22-2.02-.43-2.16-1.51-.22-1.01,.43-2.02,1.51-2.16,3.53-.72,6.91-2.59,9.22-5.47,2.45-2.81,3.82-6.48,3.82-10.23V19.73c0-4.25-1.73-8.28-4.75-11.23-2.95-3.02-6.98-4.68-11.23-4.68s-8.28,1.66-11.31,4.68c-3.02,3.02-4.68,6.98-4.68,11.23v18.51c0,3.74,1.37,7.42,3.74,10.23,2.38,2.88,5.69,4.75,9.29,5.47,1.01,.14,1.73,1.15,1.51,2.16-.14,.94-.94,1.58-1.87,1.58Z"
      />
      <path
        class="cls-1"
        d="M66.67,57.82h-1.15l-.22-.22c-10.3-.58-18.65-9.29-18.65-19.66V19.8c0-5.26,2.23-10.15,5.9-13.9C56.3,2.23,61.42,.22,66.67,.22h.58c4.54,.14,8.93,1.8,12.31,4.82,3.53,3.1,5.83,7.42,6.48,12.03,.14,1.08-.58,2.02-1.58,2.16-1.01,.14-2.02-.58-2.16-1.66-.5-3.74-2.38-7.2-5.18-9.72-2.88-2.52-6.62-3.89-10.44-3.89h-.58c-8.5,.29-15.55,7.27-15.55,15.84v18.15c0,8.71,7.34,16.06,16.13,16.06h.72c3.6-.22,6.98-1.66,9.72-4.03,2.81-2.52,4.68-6.05,5.26-9.72,.14-1.08,1.08-1.8,2.09-1.66,1.08,.14,1.8,1.08,1.66,2.09-.65,4.61-2.95,9-6.55,12.17-3.53,3.1-8.14,4.97-12.89,4.97Z"
      />
      <path
        class="cls-1"
        d="M93.31,22.61V5.26c0-2.81,2.23-5.04,4.97-5.04h29.02c1.01,0,1.87,.86,1.87,1.87,0,1.08-.86,1.94-1.87,1.94h-29.02c-.65,0-1.22,.5-1.22,1.22V22.61c0,1.08-.79,1.94-1.87,1.94s-1.87-.86-1.87-1.94Zm3.74,8.64v21.53c0,.72,.58,1.22,1.22,1.22h29.02c1.01,0,1.87,.86,1.87,1.87,0,1.08-.86,1.94-1.87,1.94h-29.02c-2.74,0-4.97-2.23-4.97-5.04V31.25c0-2.74,2.23-5.04,4.97-5.04h29.02c1.01,0,1.87,.86,1.87,1.94s-.86,1.94-1.87,1.94h-29.02c-.65,0-1.22,.5-1.22,1.15Z"
      />
      <path
        class="cls-1"
        d="M195.7,57.82h-18.29c-2.81,0-5.04-2.23-5.04-4.97V5.18c0-2.74,2.23-4.97,5.04-4.97h15.41c3.96,0,7.7,1.51,10.58,4.32,2.81,2.81,4.39,6.48,4.39,10.44,0,3.17-1.01,6.12-2.81,8.64-.65,.86-1.8,1.08-2.66,.43-.86-.58-1.08-1.8-.43-2.66,1.37-1.87,2.09-4.03,2.09-6.41,0-6.05-5.04-10.94-11.16-10.94h-15.41c-.72,0-1.22,.5-1.22,1.15V52.85c0,.65,.5,1.15,1.22,1.15h18.29c3.24,0,6.34-1.22,8.64-3.53s3.6-5.26,3.6-8.5c0-6.62-5.47-12.02-12.17-12.02h-13.9c-1.08,0-1.94-.79-1.94-1.87,0-1.01,.86-1.87,1.94-1.87h13.9c4.25,0,8.21,1.66,11.23,4.61s4.68,6.98,4.68,11.16-1.66,8.21-4.68,11.23c-3.02,2.95-7.06,4.61-11.31,4.61Z"
      />
      <path
        class="cls-1"
        d="M218.88,22.61V5.26c0-2.81,2.23-5.04,4.97-5.04h29.02c1.01,0,1.87,.86,1.87,1.87,0,1.08-.86,1.94-1.87,1.94h-29.02c-.65,0-1.22,.5-1.22,1.22V22.61c0,1.08-.79,1.94-1.87,1.94s-1.87-.86-1.87-1.94Zm3.74,8.64v21.53c0,.72,.58,1.22,1.22,1.22h29.02c1.01,0,1.87,.86,1.87,1.87,0,1.08-.86,1.94-1.87,1.94h-29.02c-2.74,0-4.97-2.23-4.97-5.04V31.25c0-2.74,2.23-5.04,4.97-5.04h29.02c1.01,0,1.87,.86,1.87,1.94s-.86,1.94-1.87,1.94h-29.02c-.65,0-1.22,.5-1.22,1.15Z"
      />
      <path
        class="cls-1"
        d="M263.73,57.6c-.22,0-.36-.07-.58-.14-1.01-.29-1.51-1.37-1.15-2.38L279.65,3.31c.72-2.02,2.52-3.31,4.68-3.31s4.03,1.3,4.75,3.31l10.08,29.45c.65,1.51,.43,3.17-.43,4.54-.86,1.3-2.3,2.09-3.82,2.09h-13.83c-.43,0-.72,.29-.72,.72s.29,.72,.72,.72h16.63c2.16,0,4.1,1.3,4.9,3.31l.07,.07,3.96,10.8c.36,1.01-.14,2.09-1.15,2.45-.94,.36-2.02-.14-2.38-1.15l-3.96-10.73c-.29-.58-.79-.94-1.44-.94h-16.63c-2.52,0-4.54-2.02-4.54-4.54s2.02-4.54,4.54-4.54h13.83c.36,0,.58-.22,.72-.36,.07-.14,.29-.5,.07-1.01l-.07-.07v-.07l-10.15-29.52c-.22-.72-.86-.79-1.15-.79-.22,0-.86,.07-1.08,.79l-17.71,51.77c-.29,.79-1.01,1.3-1.8,1.3Z"
      />
      <path
        class="cls-1"
        d="M333.58,57.82c-1.01,0-1.87-.86-1.87-1.87V10.01c0-2.74,2.23-4.97,4.97-4.97h12.24c.29,0,.5-.22,.5-.5s-.22-.58-.5-.58h-33.05c-1.01,0-1.87-.79-1.87-1.87,0-1.01,.86-1.87,1.87-1.87h33.05c2.38,0,4.25,1.94,4.25,4.32s-1.87,4.25-4.25,4.25h-12.24c-.65,0-1.22,.58-1.22,1.22V55.95c0,1.01-.79,1.87-1.87,1.87Z"
      />
      <path
        class="cls-1"
        d="M414.72,57.82c-5.26,0-9.72-1.3-13.32-3.89-1.87-1.37-3.46-3.1-4.75-5.11-.5-.86-.29-2.02,.58-2.52,.86-.58,2.02-.29,2.59,.58,1.01,1.58,2.3,2.95,3.82,4.03,2.88,2.09,6.62,3.17,11.09,3.17,3.67,0,7.2-1.08,9.94-3.17,1.22-.94,2.23-2.09,2.88-3.38,.65-1.3,.94-2.81,.94-4.39,0-1.87-.5-3.74-1.3-5.11s-1.94-2.52-3.53-3.67c-1.87-1.37-4.25-2.16-6.77-3.02-1.08-.43-2.3-.79-3.46-1.3-1.08-.43-2.09-.79-3.17-1.15-3.02-1.15-5.9-2.16-8.21-3.96-3.46-2.74-5.11-6.05-5.11-10.23,0-1.94,.36-3.96,1.15-5.76,.86-1.94,2.09-3.6,3.6-4.82,3.17-2.52,7.63-3.89,12.96-3.89,4.82,0,8.93,1.22,12.31,3.74,1.37,1.01,2.59,2.3,3.6,3.67,.58,.79,.36,2.02-.43,2.59-.86,.58-2.02,.43-2.59-.43-.79-1.08-1.73-2.02-2.81-2.88-2.66-1.94-6.05-2.95-10.08-2.95-4.46,0-8.14,1.08-10.66,3.1-2.02,1.58-3.38,4.68-3.38,7.63s1.15,5.26,3.74,7.27c1.87,1.44,4.46,2.38,7.2,3.38,1.08,.36,2.16,.79,3.24,1.22,1.08,.43,2.23,.86,3.31,1.22,2.66,.94,5.4,1.87,7.78,3.53,1.94,1.44,3.46,3.02,4.46,4.75,1.22,1.94,1.87,4.54,1.87,7.06,0,2.16-.43,4.18-1.37,6.05-.86,1.8-2.23,3.38-3.96,4.68-3.31,2.59-7.63,3.96-12.17,3.96Z"
      />
      <path
        class="cls-1"
        d="M441.21,57.6c-.22,0-.36-.07-.58-.14-1.01-.29-1.51-1.37-1.15-2.38L457.13,3.31c.72-2.02,2.52-3.31,4.68-3.31s4.03,1.3,4.75,3.31l10.08,29.45c.65,1.51,.43,3.17-.43,4.54-.86,1.3-2.3,2.09-3.82,2.09h-13.83c-.43,0-.72,.29-.72,.72s.29,.72,.72,.72h16.63c2.16,0,4.1,1.3,4.9,3.31l.07,.07,3.96,10.8c.36,1.01-.14,2.09-1.15,2.45-.94,.36-2.02-.14-2.38-1.15l-3.96-10.73c-.29-.58-.79-.94-1.44-.94h-16.63c-2.52,0-4.54-2.02-4.54-4.54s2.02-4.54,4.54-4.54h13.83c.36,0,.58-.22,.72-.36,.07-.14,.29-.5,.07-1.01l-.07-.07v-.07l-10.15-29.52c-.22-.72-.86-.79-1.15-.79-.22,0-.86,.07-1.08,.79l-17.71,51.77c-.29,.79-1.01,1.3-1.8,1.3Z"
      />
      <path
        class="cls-1"
        d="M514.8,57.82h-18.29c-2.81,0-5.04-2.23-5.04-4.97V5.18c0-2.74,2.23-4.97,5.04-4.97h15.41c3.96,0,7.7,1.51,10.58,4.32,2.81,2.81,4.39,6.48,4.39,10.44,0,3.17-1.01,6.12-2.81,8.64-.65,.86-1.8,1.08-2.66,.43-.86-.58-1.08-1.8-.43-2.66,1.37-1.87,2.09-4.03,2.09-6.41,0-6.05-5.04-10.94-11.16-10.94h-15.41c-.72,0-1.22,.5-1.22,1.15V52.85c0,.65,.5,1.15,1.22,1.15h18.29c3.24,0,6.34-1.22,8.64-3.53s3.6-5.26,3.6-8.5c0-6.62-5.47-12.02-12.17-12.02h-13.9c-1.08,0-1.94-.79-1.94-1.87,0-1.01,.86-1.87,1.94-1.87h13.9c4.25,0,8.21,1.66,11.23,4.61s4.68,6.98,4.68,11.16-1.66,8.21-4.68,11.23c-3.02,2.95-7.06,4.61-11.31,4.61Z"
      />
      <path
        class="cls-1"
        d="M537.98,22.61V5.26c0-2.81,2.23-5.04,4.97-5.04h29.02c1.01,0,1.87,.86,1.87,1.87,0,1.08-.86,1.94-1.87,1.94h-29.02c-.65,0-1.22,.5-1.22,1.22V22.61c0,1.08-.79,1.94-1.87,1.94s-1.87-.86-1.87-1.94Zm3.74,8.64v21.53c0,.72,.58,1.22,1.22,1.22h29.02c1.01,0,1.87,.86,1.87,1.87,0,1.08-.86,1.94-1.87,1.94h-29.02c-2.74,0-4.97-2.23-4.97-5.04V31.25c0-2.74,2.23-5.04,4.97-5.04h29.02c1.01,0,1.87,.86,1.87,1.94s-.86,1.94-1.87,1.94h-29.02c-.65,0-1.22,.5-1.22,1.15Z"
      />
      <path
        class="cls-1"
        d="M582.91,57.6c-1.01,0-1.87-.79-1.87-1.87V4.97c0-2.74,2.23-4.97,4.97-4.97h19.23c3.96,0,7.78,1.58,10.58,4.39s4.32,6.55,4.32,10.58-1.51,7.7-4.32,10.51c-2.81,2.81-6.62,4.39-10.58,4.39h-13.25c-.29,0-.5,.22-.5,.5s.22,.58,.5,.58h12.17c1.87,0,3.67,.5,5.33,1.44,1.58,1.01,2.88,2.45,3.67,4.1l9.22,18.29c.5,.94,.14,2.09-.79,2.59-.94,.43-2.09,.07-2.52-.86l-9.22-18.36c-1.15-2.09-3.31-3.46-5.69-3.46h-12.17c-2.38,0-4.32-1.94-4.32-4.32s1.94-4.25,4.32-4.25h13.25c6.19,0,11.16-5.04,11.16-11.16s-4.97-11.16-11.16-11.16h-19.23c-.65,0-1.22,.5-1.22,1.15V55.73c0,1.08-.79,1.87-1.87,1.87Z"
      />
    </g>
  </g>
</svg>
